<?xml version="1.0" encoding="UTF-8"?> <svg xmlns="http://www.w3.org/2000/svg" width="201.655" height="100.984" viewBox="0 0 201.655 100.984"><g transform="translate(0.445 0.49)"><path d="M292.251,365l-42.133,42.133,0,14.951,42.131,42.132,42.134-42.134V407.133Z" transform="translate(-191.869 -364.602)" fill="none" stroke="#0060af" stroke-width="1.25"></path><path d="M184.421,364.552l29.757,30.232" transform="translate(-184.421 -364.552)" fill="none" stroke="#0060af" stroke-width="1.25"></path><path d="M407.061,364.552,377.389,394.7" transform="translate(-206.297 -364.552)" fill="none" stroke="#0060af" stroke-width="1.25"></path><path d="M226.023,429.667l-41.6,42.267" transform="translate(-184.421 -371.934)" fill="none" stroke="#0060af" stroke-width="1.25"></path><path d="M364.389,430.13l41.2,41.856" transform="translate(-204.823 -371.986)" fill="none" stroke="#0060af" stroke-width="1.25"></path><g transform="translate(24.515 18.362)"><path d="M247.709,425.264q0,14.818-6.941,19.865-4.808,3.453-12.565,3.409a21.22,21.22,0,0,1-9.5-2.551q-5.056-2.552-5.056-5.922a3.548,3.548,0,0,1,.808-2.42,2.88,2.88,0,0,1,2.292-.927,3.51,3.51,0,0,1,2.5.791,6.583,6.583,0,0,1,1.464,2.465,9.607,9.607,0,0,0,3.068,3.617,8.37,8.37,0,0,0,5.341,1.855,9.258,9.258,0,0,0,8.273-4.74q2.955-4.741,2.955-14.222v-2.223q-3.535,3.093-9.47,3.046a17.342,17.342,0,0,1-10.739-3.342,18.523,18.523,0,0,1-6.253-7.772,23.739,23.739,0,0,1-1.813-9.069q0-9.318,5.407-15.455a17.643,17.643,0,0,1,13.868-6.137q7.364,0,11.637,3.727l1.364-2.227q1.044-1.773,1.954-1.772,1.408,0,1.41,2.318Zm-7.364-30.138q-3.818-6.409-9.365-6.409a9.064,9.064,0,0,0-8.2,4.5q-2.8,4.5-2.8,12.046,0,9.5,4.046,13.728a12.321,12.321,0,0,0,9.092,4.228,11.628,11.628,0,0,0,7.228-2.046Z" transform="translate(-212.07 -385.262)" fill="#1a1818"></path><path d="M285.668,390.719q-1.955-2.059-6.045-2.058a11.51,11.51,0,0,0-5.092,1.022,3.218,3.218,0,0,0-2.091,2.977,4.137,4.137,0,0,0,.273,1.864,3.8,3.8,0,0,1,.272,1.637,2.9,2.9,0,0,1-.977,2.16,3.7,3.7,0,0,1-2.659.931q-3.729,0-3.727-4.181,0-4,4.523-6.751a19.589,19.589,0,0,1,10.387-2.75q9.227,0,12.864,6.522a15.4,15.4,0,0,1,13.228-6.522q7.091,0,10.887,3.128t3.8,6.229a9.419,9.419,0,0,1-1.911,6.258q-1.908,2.268-7.59,3.56a82.316,82.316,0,0,1-16.275,1.417,19.244,19.244,0,0,0,3.682,11.524q3.683,5.114,8.774,5.114,6.317,0,11.092-5.591a2.559,2.559,0,0,1,1.864,1.5,15.877,15.877,0,0,1-5.91,6.273,15.666,15.666,0,0,1-8.318,2.364,18.632,18.632,0,0,1-7.091-1.3,15.542,15.542,0,0,1-4.3-2.319q-1.115-1.023-2.7-2.8-.637-.545-.955-.41a6.194,6.194,0,0,0-1.273,1.091q-5.683,5.773-12.455,5.728-5.775,0-8.773-1.637-4.547-2.591-4.546-8.773a10.063,10.063,0,0,1,1.659-5.4,12.243,12.243,0,0,1,4.2-4.138q5.546-3.256,18.228-4.14Q288.668,393.829,285.668,390.719Zm3.046,15.716q-9.272.727-13.955,4.182-3.455,2.546-3.455,5.863a6.715,6.715,0,0,0,1.955,5.069,8,8,0,0,0,5.773,1.887q2.226,0,5.228-2.364a11.761,11.761,0,0,0,4-5.137A60.749,60.749,0,0,0,288.714,406.434Zm6.91-3.455q10.727-.09,14.659-1.784a6.073,6.073,0,0,0,1.659-10.43,7.749,7.749,0,0,0-5.455-2.1,8.785,8.785,0,0,0-7.431,4.025A20.367,20.367,0,0,0,295.624,402.979Z" transform="translate(-218.028 -385.297)" fill="#1a1818"></path><path d="M348.193,392.128a25.016,25.016,0,0,1,6.568-4.857,14.186,14.186,0,0,1,6.206-1.737,14.557,14.557,0,0,1,11.663,5.688,20.294,20.294,0,0,1,4.7,13.332q0,10.9-6.843,17.578A18.9,18.9,0,0,1,356.8,427.31a21.944,21.944,0,0,1-8.066-1.388,1.617,1.617,0,0,0-1-.268q-.273.09-.273.951v10.009q0,5.572,1.25,6.886t6.387,1.585a3.12,3.12,0,0,1,0,3.091q-8-.186-11.274-.185-2.591,0-10.455.185a3.126,3.126,0,0,1,0-3.091q4.364-.183,5.546-1.544t1.182-6.949v-39.7q0-3.906-1.068-4.928t-4.978-1.386a4.21,4.21,0,0,1-.182-2.682,60.248,60.248,0,0,0,12.547-2.636q1.225,0,1.226.636a43.236,43.236,0,0,0-.363,5.956c0,.3.121.471.363.5A.526.526,0,0,0,348.193,392.128Zm.727,3.1a5.583,5.583,0,0,0-1.455,4.1v17.342a9.821,9.821,0,0,0,.387,3.368,7.261,7.261,0,0,0,1.842,2.23q2.182,1.958,6.591,1.958a12.744,12.744,0,0,0,6.433-1.548,10.263,10.263,0,0,0,4.091-4.188,21.652,21.652,0,0,0,2-5.439,27.939,27.939,0,0,0,.613-5.986q0-7.647-3.2-12.448t-7.887-4.8Q354.148,389.808,348.92,395.223Z" transform="translate(-225.775 -385.262)" fill="#1a1818"></path></g></g></svg> 