<svg xmlns="http://www.w3.org/2000/svg" viewBox="0 0 61.93 43.77"><g id="Layer_2" data-name="Layer 2"><g id="Layer_2-2" data-name="Layer 2"><g id="Layer_4" data-name="Layer 4"><path d="M60.87,14.47H56.24a.28.28,0,0,1-.28-.28V9.55a.28.28,0,0,1,.28-.28h4.63a.28.28,0,0,1,.28.28v4.64A.28.28,0,0,1,60.87,14.47Zm-4.35-.57h4.07V9.83H56.52Z"/><path d="M47,14.47H42.33a.29.29,0,0,1-.28-.28V9.55a.28.28,0,0,1,.48-.2L47.17,14a.28.28,0,0,1,.06.3A.29.29,0,0,1,47,14.47Zm-4.35-.57h3.67l-3.67-3.67Z"/><path d="M42.33,19.1H37.7a.27.27,0,0,1-.28-.28V9.55a.28.28,0,0,1,.28-.28h4.63a.29.29,0,0,1,.29.28v9.27A.28.28,0,0,1,42.33,19.1ZM38,18.54h4.07V9.83H38Z"/><path d="M51.6,19.1a.32.32,0,0,1-.2-.08l-4.63-4.64a.27.27,0,0,1-.08-.19V4.92A.28.28,0,0,1,47,4.63H51.6a.28.28,0,0,1,.28.29v13.9a.27.27,0,0,1-.17.26Zm-4.35-5,4.07,4.07V5.2H47.25Z"/><path d="M56.24,14.47H51.6a.29.29,0,0,1-.28-.28V.28A.29.29,0,0,1,51.6,0h4.64a.29.29,0,0,1,.28.28V14.19A.29.29,0,0,1,56.24,14.47Zm-4.36-.57H56V.56H51.88Z"/><path d="M1.37,12.18v6.91H0V12.18Z"/><path d="M4.81,14.12a2.21,2.21,0,0,1,2.34,2.11L6,16.31a1.19,1.19,0,0,0-1.23-1.18c-.72,0-1.22.54-1.22,1.55s.5,1.53,1.22,1.53A1.19,1.19,0,0,0,6,17l1.11.1a2.21,2.21,0,0,1-2.34,2.1,2.42,2.42,0,0,1-2.55-2.54A2.43,2.43,0,0,1,4.81,14.12Z"/><path d="M12.61,17.51a2.17,2.17,0,0,1-2.32,1.71,2.39,2.39,0,0,1-2.57-2.48,2.51,2.51,0,0,1,2.53-2.62,2.26,2.26,0,0,1,2.39,2.42V17H9a1.28,1.28,0,0,0,1.32,1.21,1.14,1.14,0,0,0,1.22-.82Zm-1.25-1.33a1.09,1.09,0,0,0-1.12-1.09A1.19,1.19,0,0,0,9,16.18Z"/><path d="M14.8,12.18v6.91H13.49V12.18Z"/><path d="M20.1,17.92c0,.25.13.37.34.37a1,1,0,0,0,.41-.1v.7a1.35,1.35,0,0,1-.91.31,1,1,0,0,1-1-.84,1.78,1.78,0,0,1-1.65.85c-1,0-1.62-.5-1.62-1.34s.74-1.3,1.84-1.52l1.33-.26V16a.78.78,0,0,0-.85-.87.92.92,0,0,0-.95.8l-1.2-.11A2,2,0,0,1,18,14.12c1.25,0,2.07.6,2.07,1.87Zm-1.28-1-.91.19c-.57.12-1,.22-1,.71,0,.32.25.52.67.52A1.22,1.22,0,0,0,18.82,17Z"/><path d="M22.79,19.09H21.47V14.25h1.32V15a1.69,1.69,0,0,1,1.58-.92c1.29,0,1.76.88,1.76,2v3H24.82V16.34c0-.75-.3-1.17-.95-1.17s-1.08.52-1.08,1.33Z"/><path d="M30.75,18.17a1.71,1.71,0,0,1-1.67,1c-1.44,0-2.18-1.12-2.18-2.54s.74-2.56,2.18-2.56a1.69,1.69,0,0,1,1.67,1.07v-3h1.31v6.91H30.75Zm0-1.59a1.29,1.29,0,0,0-1.28-1.43c-.83,0-1.25.61-1.25,1.53s.42,1.51,1.25,1.51a1.28,1.28,0,0,0,1.28-1.42Z"/><path d="M1.37,23.52v5.77H5v1.14H0V23.52Z"/><path d="M5.86,23.52H7.2v1.29H5.86ZM7.19,25.6v4.83H5.88V25.6Z"/><path d="M12.93,28.85a2.18,2.18,0,0,1-2.33,1.71A2.38,2.38,0,0,1,8,28.09a2.5,2.5,0,0,1,2.53-2.63A2.26,2.26,0,0,1,13,27.88v.47H9.33a1.29,1.29,0,0,0,1.32,1.22,1.16,1.16,0,0,0,1.22-.83Zm-1.25-1.32a1.1,1.1,0,0,0-1.12-1.1,1.2,1.2,0,0,0-1.21,1.1Z"/><path d="M16.14,25.46a2.21,2.21,0,0,1,2.34,2.11l-1.11.08a1.19,1.19,0,0,0-1.23-1.18c-.72,0-1.23.54-1.23,1.55s.51,1.54,1.23,1.54a1.2,1.2,0,0,0,1.23-1.2l1.11.1a2.21,2.21,0,0,1-2.34,2.1,2.55,2.55,0,1,1,0-5.1Z"/><path d="M20.63,30.43H19.31V23.52h1.32v2.87a1.68,1.68,0,0,1,1.58-.93c1.29,0,1.76.88,1.76,2v3H22.66V27.68c0-.75-.3-1.17-.95-1.17s-1.08.52-1.08,1.33Z"/><path d="M25.21,26.52h-.69v-.78l.33-.06c.47-.07.6-.31.71-.76l.15-.66h.81V25.6h1.31v.92H26.52v2.39c0,.41.18.6.58.6a2.08,2.08,0,0,0,.82-.23v.87a2.1,2.1,0,0,1-1.34.41,1.22,1.22,0,0,1-1.37-1.36Z"/><path d="M33.27,28.85A2.18,2.18,0,0,1,31,30.56a2.38,2.38,0,0,1-2.57-2.47,2.5,2.5,0,0,1,2.53-2.63,2.26,2.26,0,0,1,2.39,2.42v.47H29.67A1.29,1.29,0,0,0,31,29.57a1.15,1.15,0,0,0,1.22-.83ZM32,27.53a1.09,1.09,0,0,0-1.12-1.1,1.19,1.19,0,0,0-1.2,1.1Z"/><path d="M35.49,30.43H34.17V25.6h1.32v.79a1.68,1.68,0,0,1,1.57-.93c1.3,0,1.77.88,1.77,2v3H37.51V27.68c0-.75-.29-1.17-.94-1.17s-1.08.52-1.08,1.33Z"/><path d="M40.69,28.79c.08.58.52.87,1.19.87.48,0,.88-.16.88-.51s-.22-.47-.71-.55l-.76-.13c-1-.17-1.6-.55-1.6-1.45s.77-1.56,2-1.56,2.14.61,2.23,1.68l-1.09.05c-.09-.55-.46-.83-1.15-.83-.47,0-.78.21-.78.54s.18.42.53.47l.92.16c1,.16,1.62.59,1.62,1.5s-.85,1.53-2.1,1.53-2.23-.54-2.32-1.73Z"/><path d="M45,26.52h-.69v-.78l.33-.06c.47-.07.6-.31.71-.76l.16-.66h.8V25.6H47.6v.92H46.29v2.39c0,.41.18.6.58.6a2,2,0,0,0,.82-.23v.87a2.1,2.1,0,0,1-1.34.41A1.22,1.22,0,0,1,45,29.2Z"/><path d="M53,28.85a2.17,2.17,0,0,1-2.32,1.71,2.39,2.39,0,0,1-2.57-2.47,2.51,2.51,0,0,1,2.53-2.63,2.26,2.26,0,0,1,2.39,2.42v.47H49.44a1.29,1.29,0,0,0,1.32,1.22A1.15,1.15,0,0,0,52,28.74Zm-1.25-1.32a1.09,1.09,0,0,0-1.12-1.1,1.19,1.19,0,0,0-1.2,1.1Z"/><path d="M53.92,23.52h1.35v1.29H53.92Zm1.34,2.08v4.83H53.94V25.6Z"/><path d="M57.7,30.43H56.39V25.6H57.7v.79a1.69,1.69,0,0,1,1.58-.93c1.3,0,1.77.88,1.77,2v3H59.73V27.68c0-.75-.3-1.17-.94-1.17S57.7,27,57.7,27.84Z"/><path d="M4.63,39.47v-4.6H5.9v6.9H4.8L1.27,36.9v4.87H0v-6.9H1.36Z"/><path d="M9.32,41.91a2.55,2.55,0,0,1,0-5.1,2.55,2.55,0,1,1,0,5.1Zm0-1c.81,0,1.23-.64,1.23-1.55s-.42-1.56-1.23-1.56-1.22.64-1.22,1.56S8.52,40.91,9.32,40.91Z"/><path d="M16,38.23a1.53,1.53,0,0,0-.79-.21c-.68,0-1.14.49-1.14,1.36v2.39H12.71V36.94H14v.92a1.45,1.45,0,0,1,1.34-1,1.06,1.06,0,0,1,.68.19Z"/><path d="M21.44,40.16h0l1-3.22h1.2l-1.54,4.83H20.87L20,38.58h0l-.88,3.19H17.79l-1.54-4.83h1.31l1,3.22h0l.88-3.22h1.06Z"/><path d="M28.37,40.6c0,.25.13.37.34.37a.88.88,0,0,0,.4-.1v.71a1.37,1.37,0,0,1-.91.3,1,1,0,0,1-1-.84,1.75,1.75,0,0,1-1.64.85c-1,0-1.62-.5-1.62-1.33s.74-1.31,1.84-1.53l1.33-.26v-.11a.78.78,0,0,0-.85-.87.92.92,0,0,0-.95.8l-1.2-.11a2,2,0,0,1,2.21-1.67c1.25,0,2.07.59,2.07,1.86Zm-1.28-1-.91.2c-.57.12-1,.22-1,.7,0,.33.25.52.67.52a1.22,1.22,0,0,0,1.22-1.3Z"/><path d="M30.24,43.57,31,41.8l-2-4.86h1.38l1.32,3.3h0L33,36.94h1.28l-2.77,6.63Z"/><path d="M38.16,40.11a2.44,2.44,0,0,1-1-.21.65.65,0,0,0-.4.55c0,.29.17.45.63.45h1.84c1,0,1.56.52,1.56,1.26,0,1.17-1.28,1.61-2.68,1.61s-2.3-.44-2.3-1.32a1.11,1.11,0,0,1,1-1.07.77.77,0,0,1-.61-.78,1,1,0,0,1,.66-.88,1.47,1.47,0,0,1-.59-1.23c0-1,.8-1.61,1.92-1.61a2.06,2.06,0,0,1,1.48.53,1.4,1.4,0,0,1,1.17-.65v.65a2.14,2.14,0,0,0-1,.23,1.52,1.52,0,0,1,.25.85C40.09,39.49,39.28,40.11,38.16,40.11Zm-.09,3.18c1.19,0,2-.29,2-1.11,0-.5-.43-.69-1.06-.69h-1.5c-.59,0-1.09.19-1.09.8S37.12,43.29,38.07,43.29Zm.09-5.95a1.16,1.16,0,1,0,1.25,1.17A1.1,1.1,0,0,0,38.16,37.34Z"/><path d="M44.06,37.68a1.35,1.35,0,0,0-.72-.18c-.69,0-1.25.71-1.25,1.66v2.61h-.67V37h.67v1a1.53,1.53,0,0,1,1.37-1.13,1,1,0,0,1,.68.22Z"/><path d="M48.4,41a.35.35,0,0,0,.4.38,1.12,1.12,0,0,0,.43-.12v.36a.76.76,0,0,1-.63.28c-.47,0-.81-.4-.83-1a2,2,0,0,1-1.77,1,1.31,1.31,0,0,1-1.48-1.32c0-.9.79-1.26,2-1.5l1.28-.27v-.24a1.08,1.08,0,0,0-1.18-1.17,1.33,1.33,0,0,0-1.36,1.06l-.57-.11a1.87,1.87,0,0,1,1.92-1.48,1.62,1.62,0,0,1,1.82,1.8Zm-.63-1.65-1.17.25c-.86.19-1.4.36-1.4,1a.81.81,0,0,0,.92.82,1.66,1.66,0,0,0,1.65-1.78Z"/><path d="M50.6,41.77h-.67V37h.67v.88a1.73,1.73,0,0,1,1.6-1c1.23,0,1.74.8,1.74,1.94v3h-.67v-3A1.22,1.22,0,0,0,52,37.41a1.43,1.43,0,0,0-1.42,1.51Z"/><path d="M55.31,37.51h-.73v-.33l.28-.06c.44-.08.53-.29.63-.75l.14-.68H56V37h1.38v.5H56v3.22c0,.43.17.64.61.64a2,2,0,0,0,.94-.33v.47a1.78,1.78,0,0,1-1.17.4c-.63,0-1-.32-1-1.19Z"/><path d="M58.48,40.1a1.41,1.41,0,0,0,1.57,1.28c.73,0,1.25-.28,1.25-.83s-.37-.7-1-.82l-.83-.14c-.83-.14-1.34-.52-1.34-1.29s.71-1.42,1.75-1.42a1.75,1.75,0,0,1,2,1.71l-.52,0a1.31,1.31,0,0,0-1.5-1.23c-.68,0-1.13.31-1.13.81s.27.69.87.79l.87.14c.94.16,1.48.49,1.48,1.33s-.83,1.43-1.87,1.43a1.88,1.88,0,0,1-2.12-1.75Z"/></g></g></g></svg>