<svg xmlns="http://www.w3.org/2000/svg" width="201.655" height="100.984"><path d="M100.827.888L58.694 43.021v14.951l42.131 42.132 42.134-42.134V43.021zM.445.49l29.757 30.232M201.209.49l-29.672 30.148M42.047 58.223L.447 100.49m159.564-41.856l41.2 41.856" fill="none" stroke="#0060af" stroke-width="1.25"/><path d="M60.599 58.854q0 14.818-6.941 19.865-4.808 3.453-12.565 3.409a21.22 21.22 0 01-9.5-2.551q-5.056-2.552-5.056-5.922a3.548 3.548 0 01.808-2.42 2.88 2.88 0 012.292-.927 3.51 3.51 0 012.5.791 6.583 6.583 0 011.464 2.465 9.607 9.607 0 003.068 3.617 8.37 8.37 0 005.341 1.855 9.258 9.258 0 008.273-4.74q2.955-4.741 2.955-14.222v-2.223q-3.535 3.093-9.47 3.046a17.342 17.342 0 01-10.739-3.342 18.523 18.523 0 01-6.253-7.772 23.739 23.739 0 01-1.813-9.069q0-9.318 5.407-15.455a17.643 17.643 0 0113.868-6.137q7.364 0 11.637 3.727l1.364-2.227q1.044-1.773 1.954-1.772 1.408 0 1.41 2.318zm-7.364-30.138q-3.818-6.409-9.365-6.409a9.064 9.064 0 00-8.2 4.5q-2.8 4.5-2.8 12.046 0 9.5 4.046 13.728a12.321 12.321 0 009.092 4.228 11.628 11.628 0 007.228-2.046zM92.6 24.274q-1.955-2.059-6.045-2.058a11.51 11.51 0 00-5.092 1.022 3.218 3.218 0 00-2.091 2.977 4.137 4.137 0 00.273 1.864 3.8 3.8 0 01.272 1.637 2.9 2.9 0 01-.977 2.16 3.7 3.7 0 01-2.659.931q-3.729 0-3.727-4.181 0-4 4.523-6.751a19.589 19.589 0 0110.387-2.75q9.227 0 12.864 6.522a15.4 15.4 0 0113.228-6.522q7.091 0 10.887 3.128t3.8 6.229a9.419 9.419 0 01-1.911 6.258q-1.908 2.268-7.59 3.56a82.316 82.316 0 01-16.275 1.417 19.244 19.244 0 003.682 11.524q3.683 5.114 8.774 5.114 6.317 0 11.092-5.591a2.559 2.559 0 011.864 1.5 15.877 15.877 0 01-5.91 6.273 15.666 15.666 0 01-8.318 2.364 18.632 18.632 0 01-7.091-1.3 15.542 15.542 0 01-4.3-2.319q-1.115-1.023-2.7-2.8-.637-.545-.955-.41a6.194 6.194 0 00-1.273 1.091q-5.683 5.773-12.455 5.728-5.775 0-8.773-1.637-4.547-2.591-4.546-8.773a10.063 10.063 0 011.659-5.4 12.243 12.243 0 014.2-4.138q5.546-3.256 18.228-4.14-.045-9.419-3.045-12.529zm3.046 15.716q-9.272.727-13.955 4.182-3.455 2.546-3.455 5.863a6.715 6.715 0 001.955 5.069 8 8 0 005.773 1.887q2.226 0 5.228-2.364a11.761 11.761 0 004-5.137 60.749 60.749 0 00.454-9.501zm6.91-3.455q10.727-.09 14.659-1.784a6.073 6.073 0 001.659-10.43 7.749 7.749 0 00-5.455-2.1 8.785 8.785 0 00-7.431 4.025 20.367 20.367 0 00-3.432 10.288zm44.822-10.817a25.016 25.016 0 016.568-4.857 14.186 14.186 0 016.206-1.737 14.557 14.557 0 0111.663 5.688 20.294 20.294 0 014.7 13.332q0 10.9-6.843 17.578a18.9 18.9 0 01-13.687 5.178 21.944 21.944 0 01-8.066-1.388 1.617 1.617 0 00-1-.268q-.273.09-.273.951v10.009q0 5.572 1.25 6.886t6.387 1.585a3.12 3.12 0 010 3.091q-8-.186-11.274-.185-2.591 0-10.455.185a3.126 3.126 0 010-3.091q4.364-.183 5.546-1.544t1.182-6.949v-39.7q0-3.906-1.068-4.928t-4.978-1.386a4.21 4.21 0 01-.182-2.682 60.248 60.248 0 0012.547-2.636q1.225 0 1.226.636a43.236 43.236 0 00-.363 5.956c0 .3.121.471.363.5a.526.526 0 00.551-.224zm.727 3.1a5.583 5.583 0 00-1.455 4.1V50.26a9.821 9.821 0 00.387 3.368 7.261 7.261 0 001.842 2.23q2.182 1.958 6.591 1.958a12.744 12.744 0 006.433-1.548 10.263 10.263 0 004.091-4.188 21.652 21.652 0 002-5.439 27.939 27.939 0 00.613-5.986q0-7.647-3.2-12.448t-7.887-4.8q-4.187-.009-9.415 5.406z" fill="#1a1818"/></svg>