<svg id="Layer_1" data-name="Layer 1" xmlns="http://www.w3.org/2000/svg" width="269.67mm" height="90.79mm" viewBox="0 0 764.41 257.36"><defs><style>.cls-1{fill:#1d1d1b;}</style></defs><title>logo-acep</title><path class="cls-1" d="M37.7,10.34,60.38,59.82H50.14l-3.38-7.45H28.59l-3.38,7.45H15Zm5.5,33.23L37.64,31.29,32.15,43.57Z"/><path class="cls-1" d="M69.32,45.05a12,12,0,0,0,10.92,6.18c4.82,0,6.5-2.42,6.5-4.63,0-4.1-4.86-5.11-10.92-7.53-6.25-2.41-10.56-6-10.56-13.56,0-8.39,6.74-13.22,14.49-13.22a16.64,16.64,0,0,1,14.49,7.65L87.8,25.18c-1.55-2.15-4-3.63-7.8-3.63-3.25,0-5.25,1.62-5.25,3.83,0,3.89,3.44,4,10.5,7,7.87,3.21,11.12,7.18,11.12,13.89,0,8.26-5.13,14.3-16.18,14.3-9.38,0-15.18-4.7-17.88-10.34Z"/><path class="cls-1" d="M124.35,12.29c12.94,0,23.24,10.67,23.24,24.23s-10.3,24.24-23.24,24.24S101.1,50.15,101.1,36.52,111.47,12.29,124.35,12.29Zm0,39.07C132,51.36,138,44.78,138,36.52S132,21.69,124.35,21.69s-13.62,6.64-13.62,14.83C110.73,44.91,116.66,51.36,124.35,51.36Z"/><path class="cls-1" d="M176.43,12.29A22.47,22.47,0,0,1,194.05,21l-6.56,6a14.34,14.34,0,0,0-11.06-5.3c-7.74,0-13.8,6.31-13.8,14.77s6.06,14.7,13.8,14.7a14.31,14.31,0,0,0,11.12-5.37l6.56,6a22.49,22.49,0,0,1-17.68,8.79C163.5,60.56,153,50.42,153,36.46S163.5,12.29,176.43,12.29Z"/><path class="cls-1" d="M200.84,13h9.62V59.82h-9.62Z"/><path class="cls-1" d="M238.9,10.34l22.68,49.48H251.33L248,52.37H229.78l-3.38,7.45H216.22Zm5.49,33.23-5.56-12.28-5.5,12.28Z"/><path class="cls-1" d="M271.7,22.42H259.89V13h33.05v9.39H281.31v37.4H271.7ZM281.5,63l-6.25,9.74h-6.93L271.45,63Z"/><path class="cls-1" d="M298.79,13h9.62V59.82h-9.62Z"/><path class="cls-1" d="M336.88,10.34l22.68,49.48H349.31l-3.37-7.45H327.76l-3.37,7.45H314.2Zm5.49,33.23-5.56-12.28-5.49,12.28Z"/><path class="cls-1" d="M411.37,12.29A22.45,22.45,0,0,1,429,21l-6.56,6a14.36,14.36,0,0,0-11.06-5.3c-7.74,0-13.8,6.31-13.8,14.77s6.06,14.7,13.8,14.7a14.35,14.35,0,0,0,11.13-5.37l6.56,6a22.5,22.5,0,0,1-17.69,8.79c-12.93,0-23.43-10.14-23.43-24.1S398.44,12.29,411.37,12.29Z"/><path class="cls-1" d="M434.78,13h9.62V39.82c0,8.19,3.56,11.34,8.93,11.34S462.2,48,462.2,39.82V13h9.62V40.89c0,13.22-8.37,19.67-18.49,19.67s-18.55-6.45-18.55-19.67Z"/><path class="cls-1" d="M481.67,13h9.61V50.42h17v9.4H481.67Z"/><path class="cls-1" d="M518.84,22.42H507V13h33.05v9.39H528.46v37.4h-9.62Z"/><path class="cls-1" d="M545.56,13h9.62V39.82c0,8.19,3.57,11.34,8.93,11.34S573,48,573,39.82V13h9.63V40.89c0,13.22-8.37,19.67-18.5,19.67s-18.55-6.45-18.55-19.67Z"/><path class="cls-1" d="M592.46,13H610.7c8.12,0,14.8,6.71,14.8,15.44,0,6.11-3.12,11.14-7.75,13.29l10.63,18.06H617.51l-9.06-15.58H602V59.82h-9.55Zm17.17,22.09c3.75,0,6.25-2.56,6.25-6.52,0-3.63-2.37-6.18-5.43-6.18H602v12.7Z"/><path class="cls-1" d="M654.92,10.34,677.6,59.82H667.35L664,52.37H645.8l-3.37,7.45H632.24Zm5.5,33.23-5.56-12.28-5.5,12.28Z"/><path class="cls-1" d="M683.31,13h9.63V50.42h17v9.4H683.31Z"/><path class="cls-1" d="M736.87,10.34l22.68,49.48H749.3l-3.37-7.45H727.75l-3.37,7.45H714.19ZM725.81,0h6.69a4.32,4.32,0,0,0,4.37,3.15A4.32,4.32,0,0,0,741.24,0h6.62a10.82,10.82,0,0,1-11,9.67A10.9,10.9,0,0,1,725.81,0Zm16.56,43.57-5.56-12.28-5.5,12.28Z"/><path class="cls-1" d="M69.88,160.58V96.94h40.55v10.32H81.29v15.16H108.6v10.31H81.29v17.54h29.78v10.31Z"/><path class="cls-1" d="M153.83,160.58l31.51-66.74,31.41,66.74H204.61l-5.67-12.32h-27.4l-5.65,12.32Zm22-22.18h18.82l-9.41-20.73Z"/><path class="cls-1" d="M259.51,141.76c3.29,6.5,8.59,9.69,16,9.69,7.94,0,10.78-4.19,10.78-8.3a7,7,0,0,0-3.65-6.48c-2.65-1.84-4.57-2.66-9.32-4.39-5.84-2.2-9.22-3.83-12.88-6.76S255,118.4,255,113a15.59,15.59,0,0,1,5.66-12.42,21.16,21.16,0,0,1,14.06-4.75c8.67,0,15.26,3.46,19.64,10.31l-8.13,5.58c-2.46-3.74-6.21-5.65-11.33-5.65s-8.67,2.82-8.67,6.76c0,2.65,1.1,3.91,2.65,5.47,1,.73,3.56,1.82,4.75,2.46l3.29,1.29,3.74,1.45c6,2.46,10.32,5.12,13,7.94s4,6.67,4,11.44c0,11.21-7.77,18.79-22.28,18.79-11.79,0-20.47-5.48-24.48-14.51Z"/><path class="cls-1" d="M346.22,160.58V107.26H329V96.94H374.9v10.32H357.64v53.32Z"/><path class="cls-1" d="M425,163.06,402.67,96.94h11.6L427,135l18-39.18,17.72,39.09,12.87-38h11.6l-22.46,66.21-19.73-43Z"/><path class="cls-1" d="M501.73,160.58l31.52-66.74,31.42,66.74H552.53l-5.67-12.32h-27.4l-5.66,12.32Zm22-22.18h18.81l-9.41-20.73Z"/><path class="cls-1" d="M585.88,160.58V96.94h24.75a20,20,0,0,1,14.61,5.85,18.89,18.89,0,0,1,6,14.33,19.18,19.18,0,0,1-11.59,18.07l15.43,25.39H622.22L608.61,138H597.3v22.63Zm11.42-32.87h12.15c6.21,0,10.49-4.28,10.49-10.4,0-5.86-4.11-10-9.59-10H597.3Z"/><path class="cls-1" d="M652.49,160.58V96.94h22.73c10.51,0,18.73,2.92,24.58,8.86s8.85,13.5,8.85,23.1-2.92,17.26-8.76,23-14.07,8.66-24.57,8.66Zm11.41-10.31h10.59c15.8,0,22.74-8.32,22.74-21.37,0-13.41-6.84-21.64-22.82-21.64H663.9Z"/><path class="cls-1" d="M726.23,141.76c3.3,6.5,8.58,9.69,16,9.69,7.94,0,10.77-4.19,10.77-8.3a7,7,0,0,0-3.65-6.48c-2.65-1.84-4.57-2.66-9.31-4.39-5.86-2.2-9.22-3.83-12.89-6.76s-5.39-7.12-5.39-12.51a15.6,15.6,0,0,1,5.67-12.42,21.19,21.19,0,0,1,14.07-4.75c8.67,0,15.25,3.46,19.63,10.31L753,111.73c-2.46-3.74-6.2-5.65-11.32-5.65S733,108.9,733,112.84c0,2.65,1.09,3.91,2.65,5.47,1,.73,3.56,1.82,4.75,2.46l3.29,1.29,3.74,1.45c6,2.46,10.33,5.12,13,7.94s4,6.67,4,11.44c0,11.21-7.76,18.79-22.28,18.79-11.78,0-20.46-5.48-24.48-14.51Z"/><path class="cls-1" d="M0,256.09V192.44H24.29a20.83,20.83,0,0,1,14.43,5.74,20.76,20.76,0,0,1,0,29.79,20.26,20.26,0,0,1-14.43,5.84H11.41v22.28Zm11.41-32.6H23.75c5.11,0,10-3.74,10-10.32s-4.84-10.43-10-10.43H11.41Z"/><path class="cls-1" d="M94.53,256.09V192.44h24.74a20.06,20.06,0,0,1,14.62,5.84,19,19,0,0,1,6,14.33,19.2,19.2,0,0,1-11.59,18.09l15.44,25.39H130.88l-13.62-22.65H105.94v22.65Zm11.41-32.87h12.14c6.22,0,10.51-4.3,10.51-10.42,0-5.84-4.11-10.06-9.58-10.06H105.94Z"/><path class="cls-1" d="M193.74,247.88a33.09,33.09,0,0,1,0-46.95,34.38,34.38,0,0,1,47.66,0,31.18,31.18,0,0,1,9.87,23.47,31.53,31.53,0,0,1-9.77,23.48,34.82,34.82,0,0,1-47.76,0Zm7.85-7.31a21.89,21.89,0,0,0,16,6.49,21.66,21.66,0,0,0,15.88-6.49,23.38,23.38,0,0,0,0-32.33,21.28,21.28,0,0,0-15.88-6.58,21.51,21.51,0,0,0-16,6.58,23.64,23.64,0,0,0,0,32.33Z"/><path class="cls-1" d="M295.9,237.27c3.29,6.5,8.59,9.69,16,9.69,7.95,0,10.78-4.2,10.78-8.32a7,7,0,0,0-3.65-6.48c-2.66-1.83-4.57-2.65-9.31-4.38-5.85-2.19-9.23-3.83-12.89-6.75s-5.38-7.14-5.38-12.52a15.56,15.56,0,0,1,5.66-12.43,21.2,21.2,0,0,1,14.06-4.75c8.68,0,15.25,3.48,19.64,10.33l-8.13,5.56c-2.47-3.74-6.21-5.65-11.33-5.65s-8.66,2.83-8.66,6.75c0,2.66,1.09,3.93,2.63,5.47a50.87,50.87,0,0,0,4.77,2.48l3.27,1.28,3.75,1.46c6,2.47,10.32,5.11,13,8s4,6.67,4,11.41c0,11.24-7.76,18.82-22.28,18.82-11.78,0-20.45-5.48-24.48-14.53Z"/><path class="cls-1" d="M371.24,256.09V192.44h24.29A20.85,20.85,0,0,1,410,198.18,20.76,20.76,0,0,1,410,228a20.31,20.31,0,0,1-14.43,5.84H382.65v22.28Zm11.41-32.6H395c5.11,0,9.95-3.74,9.95-10.32s-4.84-10.43-9.95-10.43H382.65Z"/><path class="cls-1" d="M447.5,256.09V192.44H488v10.3H458.92v15.19h27.29v10.31H458.92v17.53h29.77v10.32Z"/><path class="cls-1" d="M572.78,202.74,565,209.42a22.17,22.17,0,0,0-17.45-7.76,22.6,22.6,0,1,0,0,45.2,22.07,22.07,0,0,0,17.64-7.94l7.66,6.66a33,33,0,0,1-25.3,11.61,33.8,33.8,0,0,1-24-9.31,33.29,33.29,0,0,1,0-47.14,33.51,33.51,0,0,1,24-9.41A32.23,32.23,0,0,1,572.78,202.74Z"/><path class="cls-1" d="M609,256.09V202.74H591.7v-10.3h45.94v10.3H620.37v53.35Z"/><path class="cls-1" d="M653.94,192.44h11.41v38.07c0,11,5.39,16.26,14.42,16.26,8.87,0,14.35-5.29,14.35-16.26V192.44h11.41v39.27c0,8.13-2.38,14.42-7.21,18.8s-11,6.57-18.55,6.57-13.78-2.18-18.62-6.57-7.21-10.67-7.21-18.8Z"/><path class="cls-1" d="M726.23,237.27c3.3,6.5,8.59,9.69,16,9.69,7.94,0,10.77-4.2,10.77-8.32a7,7,0,0,0-3.65-6.48c-2.65-1.83-4.57-2.65-9.31-4.38-5.86-2.19-9.22-3.83-12.87-6.75s-5.4-7.14-5.4-12.52a15.57,15.57,0,0,1,5.67-12.43,21.15,21.15,0,0,1,14.06-4.75c8.67,0,15.25,3.48,19.63,10.33L753,207.22c-2.46-3.74-6.2-5.65-11.32-5.65S733,204.4,733,208.32c0,2.66,1.09,3.93,2.65,5.47a50.48,50.48,0,0,0,4.75,2.48l3.29,1.28,3.74,1.46c6,2.47,10.33,5.11,13,8s4,6.67,4,11.41c0,11.24-7.76,18.82-22.28,18.82-11.78,0-20.46-5.48-24.48-14.53Z"/></svg>