<svg xmlns="http://www.w3.org/2000/svg" viewBox="0 0 61.93 43.77"><g data-name="Layer 2"><g data-name="Layer 4"><path d="M60.87 14.47h-4.63a.28.28 0 01-.28-.28V9.55a.28.28 0 01.28-.28h4.63a.28.28 0 01.28.28v4.64a.28.28 0 01-.28.28zm-4.35-.57h4.07V9.83h-4.07zm-9.52.57h-4.67a.29.29 0 01-.28-.28V9.55a.28.28 0 01.48-.2L47.17 14a.28.28 0 01.06.3.29.29 0 01-.23.17zm-4.35-.57h3.67l-3.67-3.67z"/><path d="M42.33 19.1H37.7a.27.27 0 01-.28-.28V9.55a.28.28 0 01.28-.28h4.63a.29.29 0 01.29.28v9.27a.28.28 0 01-.29.28zM38 18.54h4.07V9.83H38zm13.6.56a.32.32 0 01-.2-.08l-4.63-4.64a.27.27 0 01-.08-.19V4.92a.28.28 0 01.31-.29h4.6a.28.28 0 01.28.29v13.9a.27.27 0 01-.17.26zm-4.35-5l4.07 4.07V5.2h-4.07z"/><path d="M56.24 14.47H51.6a.29.29 0 01-.28-.28V.28A.29.29 0 0151.6 0h4.64a.29.29 0 01.28.28v13.91a.29.29 0 01-.28.28zm-4.36-.57H56V.56h-4.12zM1.37 12.18v6.91H0v-6.91zm3.44 1.94a2.21 2.21 0 012.34 2.11L6 16.31a1.19 1.19 0 00-1.23-1.18c-.72 0-1.22.54-1.22 1.55s.5 1.53 1.22 1.53A1.19 1.19 0 006 17l1.11.1a2.21 2.21 0 01-2.34 2.1 2.42 2.42 0 01-2.55-2.54 2.43 2.43 0 012.59-2.54zm7.8 3.39a2.17 2.17 0 01-2.32 1.71 2.39 2.39 0 01-2.57-2.48 2.51 2.51 0 012.53-2.62 2.26 2.26 0 012.39 2.42V17H9a1.28 1.28 0 001.32 1.21 1.14 1.14 0 001.22-.82zm-1.25-1.33a1.09 1.09 0 00-1.12-1.09A1.19 1.19 0 009 16.18zm3.44-4v6.91h-1.31v-6.91zm5.3 5.74c0 .25.13.37.34.37a1 1 0 00.41-.1v.7a1.35 1.35 0 01-.91.31 1 1 0 01-1-.84 1.78 1.78 0 01-1.65.85c-1 0-1.62-.5-1.62-1.34s.74-1.3 1.84-1.52l1.33-.26V16a.78.78 0 00-.85-.87.92.92 0 00-.95.8l-1.2-.11a2 2 0 012.16-1.7c1.25 0 2.07.6 2.07 1.87zm-1.28-1l-.91.19c-.57.12-1 .22-1 .71 0 .32.25.52.67.52A1.22 1.22 0 0018.82 17zm3.97 2.17h-1.32v-4.84h1.32V15a1.69 1.69 0 011.58-.92c1.29 0 1.76.88 1.76 2v3h-1.31v-2.74c0-.75-.3-1.17-.95-1.17s-1.08.52-1.08 1.33zm7.96-.92a1.71 1.71 0 01-1.67 1c-1.44 0-2.18-1.12-2.18-2.54s.74-2.56 2.18-2.56a1.69 1.69 0 011.67 1.07v-3h1.31v6.91h-1.31zm0-1.59a1.29 1.29 0 00-1.28-1.43c-.83 0-1.25.61-1.25 1.53s.42 1.51 1.25 1.51a1.28 1.28 0 001.28-1.42zM1.37 23.52v5.77H5v1.14H0v-6.91zm4.49 0H7.2v1.29H5.86zm1.33 2.08v4.83H5.88V25.6zm5.74 3.25a2.18 2.18 0 01-2.33 1.71A2.38 2.38 0 018 28.09a2.5 2.5 0 012.53-2.63A2.26 2.26 0 0113 27.88v.47H9.33a1.29 1.29 0 001.32 1.22 1.16 1.16 0 001.22-.83zm-1.25-1.32a1.1 1.1 0 00-1.12-1.1 1.2 1.2 0 00-1.21 1.1zm4.46-2.07a2.21 2.21 0 012.34 2.11l-1.11.08a1.19 1.19 0 00-1.23-1.18c-.72 0-1.23.54-1.23 1.55s.51 1.54 1.23 1.54a1.2 1.2 0 001.23-1.2l1.11.1a2.21 2.21 0 01-2.34 2.1 2.55 2.55 0 110-5.1zm4.49 4.97h-1.32v-6.91h1.32v2.87a1.68 1.68 0 011.58-.93c1.29 0 1.76.88 1.76 2v3h-1.31v-2.78c0-.75-.3-1.17-.95-1.17s-1.08.52-1.08 1.33zm4.58-3.91h-.69v-.78l.33-.06c.47-.07.6-.31.71-.76l.15-.66h.81v1.34h1.31v.92h-1.31v2.39c0 .41.18.6.58.6a2.08 2.08 0 00.82-.23v.87a2.1 2.1 0 01-1.34.41 1.22 1.22 0 01-1.37-1.36zm8.06 2.33A2.18 2.18 0 0131 30.56a2.38 2.38 0 01-2.57-2.47 2.5 2.5 0 012.53-2.63 2.26 2.26 0 012.39 2.42v.47h-3.68A1.29 1.29 0 0031 29.57a1.15 1.15 0 001.22-.83zM32 27.53a1.09 1.09 0 00-1.12-1.1 1.19 1.19 0 00-1.2 1.1zm3.49 2.9h-1.32V25.6h1.32v.79a1.68 1.68 0 011.57-.93c1.3 0 1.77.88 1.77 2v3h-1.32v-2.78c0-.75-.29-1.17-.94-1.17s-1.08.52-1.08 1.33zm5.2-1.64c.08.58.52.87 1.19.87.48 0 .88-.16.88-.51s-.22-.47-.71-.55l-.76-.13c-1-.17-1.6-.55-1.6-1.45s.77-1.56 2-1.56 2.14.61 2.23 1.68l-1.09.05c-.09-.55-.46-.83-1.15-.83-.47 0-.78.21-.78.54s.18.42.53.47l.92.16c1 .16 1.62.59 1.62 1.5s-.85 1.53-2.1 1.53-2.23-.54-2.32-1.73zM45 26.52h-.69v-.78l.33-.06c.47-.07.6-.31.71-.76l.16-.66h.8v1.34h1.29v.92h-1.31v2.39c0 .41.18.6.58.6a2 2 0 00.82-.23v.87a2.1 2.1 0 01-1.34.41A1.22 1.22 0 0145 29.2zm8 2.33a2.17 2.17 0 01-2.32 1.71 2.39 2.39 0 01-2.57-2.47 2.51 2.51 0 012.53-2.63 2.26 2.26 0 012.39 2.42v.47h-3.59a1.29 1.29 0 001.32 1.22 1.15 1.15 0 001.24-.83zm-1.25-1.32a1.09 1.09 0 00-1.12-1.1 1.19 1.19 0 00-1.2 1.1zm2.17-4.01h1.35v1.29h-1.35zm1.34 2.08v4.83h-1.32V25.6zm2.44 4.83h-1.31V25.6h1.31v.79a1.69 1.69 0 011.58-.93c1.3 0 1.77.88 1.77 2v3h-1.32v-2.78c0-.75-.3-1.17-.94-1.17s-1.09.49-1.09 1.33zM4.63 39.47v-4.6H5.9v6.9H4.8L1.27 36.9v4.87H0v-6.9h1.36zm4.69 2.44a2.55 2.55 0 010-5.1 2.55 2.55 0 110 5.1zm0-1c.81 0 1.23-.64 1.23-1.55s-.42-1.56-1.23-1.56-1.22.64-1.22 1.56.42 1.55 1.22 1.55zM16 38.23a1.53 1.53 0 00-.79-.21c-.68 0-1.14.49-1.14 1.36v2.39h-1.36v-4.83H14v.92a1.45 1.45 0 011.34-1 1.06 1.06 0 01.68.19zm5.44 1.93l1-3.22h1.2l-1.54 4.83h-1.23L20 38.58l-.88 3.19h-1.33l-1.54-4.83h1.31l1 3.22.88-3.22h1.06zm6.93.44c0 .25.13.37.34.37a.88.88 0 00.4-.1v.71a1.37 1.37 0 01-.91.3 1 1 0 01-1-.84 1.75 1.75 0 01-1.64.85c-1 0-1.62-.5-1.62-1.33s.74-1.31 1.84-1.53l1.33-.26v-.11a.78.78 0 00-.85-.87.92.92 0 00-.95.8l-1.2-.11a2 2 0 012.21-1.67c1.25 0 2.07.59 2.07 1.86zm-1.28-1l-.91.2c-.57.12-1 .22-1 .7 0 .33.25.52.67.52a1.22 1.22 0 001.22-1.3zm3.15 3.97L31 41.8l-2-4.86h1.38l1.32 3.3 1.3-3.3h1.28l-2.77 6.63zm7.92-3.46a2.44 2.44 0 01-1-.21.65.65 0 00-.4.55c0 .29.17.45.63.45h1.84c1 0 1.56.52 1.56 1.26 0 1.17-1.28 1.61-2.68 1.61s-2.3-.44-2.3-1.32a1.11 1.11 0 011-1.07.77.77 0 01-.61-.78 1 1 0 01.66-.88 1.47 1.47 0 01-.59-1.23c0-1 .8-1.61 1.92-1.61a2.06 2.06 0 011.48.53 1.4 1.4 0 011.17-.65v.65a2.14 2.14 0 00-1 .23 1.52 1.52 0 01.25.85c0 1-.81 1.62-1.93 1.62zm-.09 3.18c1.19 0 2-.29 2-1.11 0-.5-.43-.69-1.06-.69h-1.5c-.59 0-1.09.19-1.09.8s.7 1 1.65 1zm.09-5.95a1.16 1.16 0 101.25 1.17 1.1 1.1 0 00-1.25-1.17zm5.9.34a1.35 1.35 0 00-.72-.18c-.69 0-1.25.71-1.25 1.66v2.61h-.67V37h.67v1a1.53 1.53 0 011.37-1.13 1 1 0 01.68.22zM48.4 41a.35.35 0 00.4.38 1.12 1.12 0 00.43-.12v.36a.76.76 0 01-.63.28c-.47 0-.81-.4-.83-1a2 2 0 01-1.77 1 1.31 1.31 0 01-1.48-1.32c0-.9.79-1.26 2-1.5l1.28-.27v-.24a1.08 1.08 0 00-1.18-1.17 1.33 1.33 0 00-1.36 1.06l-.57-.11a1.87 1.87 0 011.92-1.48 1.62 1.62 0 011.82 1.8zm-.63-1.65l-1.17.25c-.86.19-1.4.36-1.4 1a.81.81 0 00.92.82 1.66 1.66 0 001.65-1.78zm2.83 2.42h-.67V37h.67v.88a1.73 1.73 0 011.6-1c1.23 0 1.74.8 1.74 1.94v3h-.67v-3A1.22 1.22 0 0052 37.41a1.43 1.43 0 00-1.42 1.51zm4.71-4.26h-.73v-.33l.28-.06c.44-.08.53-.29.63-.75l.14-.68H56V37h1.38v.5H56v3.22c0 .43.17.64.61.64a2 2 0 00.94-.33v.47a1.78 1.78 0 01-1.17.4c-.63 0-1-.32-1-1.19zm3.17 2.59a1.41 1.41 0 001.57 1.28c.73 0 1.25-.28 1.25-.83s-.37-.7-1-.82l-.83-.14c-.83-.14-1.34-.52-1.34-1.29s.71-1.42 1.75-1.42a1.75 1.75 0 012 1.71h-.52a1.31 1.31 0 00-1.5-1.23c-.68 0-1.13.31-1.13.81s.27.69.87.79l.87.14c.94.16 1.48.49 1.48 1.33s-.83 1.43-1.87 1.43a1.88 1.88 0 01-2.12-1.75z"/></g></g></svg>