<svg id="Layer_1" data-name="Layer 1" xmlns="http://www.w3.org/2000/svg" width="99.87mm" height="99.8mm" viewBox="0 0 283.1 282.91"><defs><style>.cls-1{fill:#1298d5;}.cls-2{fill:#fff;}</style></defs><title>logo-i8</title><ellipse class="cls-1" cx="141.55" cy="141.45" rx="200.18" ry="200.05"/><path class="cls-2" d="M170.4,222.31a73.81,73.81,0,0,1-12.76-1.12,56,56,0,0,1-18.19-6.48,41.91,41.91,0,0,1-18.12-20.2,44.93,44.93,0,0,1-3-10.67,51.35,51.35,0,0,1-.52-11.94,38.77,38.77,0,0,1,2.66-11.43,40.47,40.47,0,0,1,11.08-15.73,34.36,34.36,0,0,1,12.13-6.89c.65-.22,1.33-.36,2-.55.18,0,.4-.1.38-.34s-.19-.23-.34-.28c-.8-.29-1.61-.55-2.39-.86a30.78,30.78,0,0,1-12.16-8.53,33.26,33.26,0,0,1-6.49-11.61,45.2,45.2,0,0,1-2.09-15.8,39.15,39.15,0,0,1,4-16.25,36.22,36.22,0,0,1,9.07-11.57A46,46,0,0,1,153,62.93,57.15,57.15,0,0,1,162.61,61a70.4,70.4,0,0,1,14.22-.14,59.5,59.5,0,0,1,10.1,1.78,45.89,45.89,0,0,1,19,9.95,36.57,36.57,0,0,1,10.52,16.16,43,43,0,0,1,1.87,16,39.77,39.77,0,0,1-4.15,15.94,30.77,30.77,0,0,1-16.54,15.1c-.78.31-1.59.57-2.38.87-.17.06-.41.08-.39.33s.25.26.42.31c1,.3,2.06.55,3.08.9a33.51,33.51,0,0,1,10.79,6.24A39.87,39.87,0,0,1,221.44,163a39.3,39.3,0,0,1,1.85,11.4,52.76,52.76,0,0,1-.64,9.49,42.73,42.73,0,0,1-9.06,20.64,45.38,45.38,0,0,1-18.49,13.28,56.38,56.38,0,0,1-8.88,2.77,63.64,63.64,0,0,1-10.82,1.52C173.74,222.2,172.07,222.33,170.4,222.31Zm-.14-25.22a32.05,32.05,0,0,0,9.27-1.35,24.43,24.43,0,0,0,9.91-5.8,23.58,23.58,0,0,0,7-13.69,25.83,25.83,0,0,0-.34-10.1,23.1,23.1,0,0,0-9.14-13.54,27.07,27.07,0,0,0-14.27-5.1,29.37,29.37,0,0,0-9.07.71,26.12,26.12,0,0,0-11.59,6,23.11,23.11,0,0,0-7.51,13.9,25.58,25.58,0,0,0,.58,10.66,23.24,23.24,0,0,0,9.05,13.28A27.46,27.46,0,0,0,170.26,197.09Zm21.65-92.25a32.18,32.18,0,0,0-.38-4.46,21,21,0,0,0-16.2-16.73,23.7,23.7,0,0,0-9.27-.14,20.53,20.53,0,0,0-7.87,3c-5.25,3.44-8,8.43-8.9,14.55a23.81,23.81,0,0,0,1.43,12.22,19.46,19.46,0,0,0,8.57,10.07A21.84,21.84,0,0,0,170,126.15a20.52,20.52,0,0,0,11.49-3.07A21.43,21.43,0,0,0,191.91,104.84Z" transform="translate(0.2 0.01)"/><path class="cls-2" d="M89.56,113.55a6.42,6.42,0,0,1,.11,1.69V216.76c0,.72,0,1.45,0,2.17,0,.47-.19.71-.67.7H64.47c-1.3,0-1.3,0-1.3-1.29V114.65a2.76,2.76,0,0,1,.14-1.11l.85,0h16Z" transform="translate(0.2 0.01)"/><path class="cls-2" d="M59.4,77.57A16,16,0,0,1,69.42,63a16.89,16.89,0,0,1,5.86-1.28c5.2-.19,9.83,1.23,13.59,4.94a14.64,14.64,0,0,1,4.46,12.51c-.68,6.32-4.26,10.52-10,13a17.14,17.14,0,0,1-10.26,1.1C66.37,91.9,61.83,88,59.85,81.31A13.83,13.83,0,0,1,59.4,77.57Z" transform="translate(0.2 0.01)"/></svg>