<svg data-name="Layer 1" xmlns="http://www.w3.org/2000/svg" width="269.67mm" height="90.79mm" viewBox="0 0 764.41 257.36"><path d="M37.7 10.34l22.68 49.48H50.14l-3.38-7.45H28.59l-3.38 7.45H15zm5.5 33.23l-5.56-12.28-5.49 12.28zm26.12 1.48a12 12 0 0010.92 6.18c4.82 0 6.5-2.42 6.5-4.63 0-4.1-4.86-5.11-10.92-7.53-6.25-2.41-10.56-6-10.56-13.56 0-8.39 6.74-13.22 14.49-13.22a16.64 16.64 0 0114.49 7.65l-6.44 5.24c-1.55-2.15-4-3.63-7.8-3.63-3.25 0-5.25 1.62-5.25 3.83 0 3.89 3.44 4 10.5 7 7.87 3.21 11.12 7.18 11.12 13.89 0 8.26-5.13 14.3-16.18 14.3-9.38 0-15.18-4.7-17.88-10.34zm55.03-32.76c12.94 0 23.24 10.67 23.24 24.23s-10.3 24.24-23.24 24.24-23.25-10.61-23.25-24.24 10.37-24.23 23.25-24.23zm0 39.07c7.65 0 13.65-6.58 13.65-14.84s-6-14.83-13.65-14.83-13.62 6.64-13.62 14.83c0 8.39 5.93 14.84 13.62 14.84zm52.08-39.07A22.47 22.47 0 01194.05 21l-6.56 6a14.34 14.34 0 00-11.06-5.3c-7.74 0-13.8 6.31-13.8 14.77s6.06 14.7 13.8 14.7a14.31 14.31 0 0011.12-5.37l6.56 6a22.49 22.49 0 01-17.68 8.79C163.5 60.56 153 50.42 153 36.46s10.5-24.17 23.43-24.17zm24.41.71h9.62v46.82h-9.62zm38.06-2.66l22.68 49.48h-10.25L248 52.37h-18.22l-3.38 7.45h-10.18zm5.49 33.23l-5.56-12.28-5.5 12.28zm27.31-21.15h-11.81V13h33.05v9.39h-11.63v37.4h-9.61zM281.5 63l-6.25 9.74h-6.93l3.13-9.74zm17.29-50h9.62v46.82h-9.62zm38.09-2.66l22.68 49.48h-10.25l-3.37-7.45h-18.18l-3.37 7.45H314.2zm5.49 33.23l-5.56-12.28-5.49 12.28zm69-31.28A22.45 22.45 0 01429 21l-6.56 6a14.36 14.36 0 00-11.06-5.3c-7.74 0-13.8 6.31-13.8 14.77s6.06 14.7 13.8 14.7a14.35 14.35 0 0011.13-5.37l6.56 6a22.5 22.5 0 01-17.69 8.79c-12.93 0-23.43-10.14-23.43-24.1s10.49-24.2 23.42-24.2zm23.41.71h9.62v26.82c0 8.19 3.56 11.34 8.93 11.34s8.87-3.16 8.87-11.34V13h9.62v27.89c0 13.22-8.37 19.67-18.49 19.67s-18.55-6.45-18.55-19.67zm46.89 0h9.61v37.42h17v9.4h-26.61zm37.17 9.42H507V13h33.05v9.39h-11.59v37.4h-9.62zM545.56 13h9.62v26.82c0 8.19 3.57 11.34 8.93 11.34S573 48 573 39.82V13h9.63v27.89c0 13.22-8.37 19.67-18.5 19.67s-18.55-6.45-18.55-19.67zm46.9 0h18.24c8.12 0 14.8 6.71 14.8 15.44 0 6.11-3.12 11.14-7.75 13.29l10.63 18.06h-10.87l-9.06-15.58H602v15.61h-9.55zm17.17 22.09c3.75 0 6.25-2.56 6.25-6.52 0-3.63-2.37-6.18-5.43-6.18H602v12.7zm45.29-24.75l22.68 49.48h-10.25L664 52.37h-18.2l-3.37 7.45h-10.19zm5.5 33.23l-5.56-12.28-5.5 12.28zM683.31 13h9.63v37.42h17v9.4h-26.63zm53.56-2.66l22.68 49.48H749.3l-3.37-7.45h-18.18l-3.37 7.45h-10.19zM725.81 0h6.69a4.32 4.32 0 004.37 3.15A4.32 4.32 0 00741.24 0h6.62a10.82 10.82 0 01-11 9.67A10.9 10.9 0 01725.81 0zm16.56 43.57l-5.56-12.28-5.5 12.28zM69.88 160.58V96.94h40.55v10.32H81.29v15.16h27.31v10.31H81.29v17.54h29.78v10.31zm83.95 0l31.51-66.74 31.41 66.74h-12.14l-5.67-12.32h-27.4l-5.65 12.32zm22-22.18h18.82l-9.41-20.73zm83.68 3.36c3.29 6.5 8.59 9.69 16 9.69 7.94 0 10.78-4.19 10.78-8.3a7 7 0 00-3.65-6.48c-2.65-1.84-4.57-2.66-9.32-4.39-5.84-2.2-9.22-3.83-12.88-6.76S255 118.4 255 113a15.59 15.59 0 015.66-12.42 21.16 21.16 0 0114.06-4.75c8.67 0 15.26 3.46 19.64 10.31l-8.13 5.58c-2.46-3.74-6.21-5.65-11.33-5.65s-8.67 2.82-8.67 6.76c0 2.65 1.1 3.91 2.65 5.47 1 .73 3.56 1.82 4.75 2.46l3.29 1.29 3.74 1.45c6 2.46 10.32 5.12 13 7.94s4 6.67 4 11.44c0 11.21-7.77 18.79-22.28 18.79-11.79 0-20.47-5.48-24.48-14.51zm86.71 18.82v-53.32H329V96.94h45.9v10.32h-17.26v53.32zm78.78 2.48l-22.33-66.12h11.6L427 135l18-39.18 17.72 39.09 12.87-38h11.6l-22.46 66.21-19.73-43zm76.73-2.48l31.52-66.74 31.42 66.74h-12.14l-5.67-12.32h-27.4l-5.66 12.32zm22-22.18h18.81l-9.41-20.73zm62.15 22.18V96.94h24.75a20 20 0 0114.61 5.85 18.89 18.89 0 016 14.33 19.18 19.18 0 01-11.59 18.07l15.43 25.39h-12.86L608.61 138H597.3v22.63zm11.42-32.87h12.15c6.21 0 10.49-4.28 10.49-10.4 0-5.86-4.11-10-9.59-10H597.3zm55.19 32.87V96.94h22.73c10.51 0 18.73 2.92 24.58 8.86s8.85 13.5 8.85 23.1-2.92 17.26-8.76 23-14.07 8.66-24.57 8.66zm11.41-10.31h10.59c15.8 0 22.74-8.32 22.74-21.37 0-13.41-6.84-21.64-22.82-21.64H663.9zm62.33-8.51c3.3 6.5 8.58 9.69 16 9.69 7.94 0 10.77-4.19 10.77-8.3a7 7 0 00-3.65-6.48c-2.65-1.84-4.57-2.66-9.31-4.39-5.86-2.2-9.22-3.83-12.89-6.76s-5.39-7.12-5.39-12.51a15.6 15.6 0 015.67-12.42 21.19 21.19 0 0114.07-4.75c8.67 0 15.25 3.46 19.63 10.31l-8.13 5.58c-2.46-3.74-6.2-5.65-11.32-5.65s-8.68 2.82-8.68 6.76c0 2.65 1.09 3.91 2.65 5.47 1 .73 3.56 1.82 4.75 2.46l3.29 1.29 3.74 1.45c6 2.46 10.33 5.12 13 7.94s4 6.67 4 11.44c0 11.21-7.76 18.79-22.28 18.79-11.78 0-20.46-5.48-24.48-14.51zM0 256.09v-63.65h24.29a20.83 20.83 0 0114.43 5.74 20.76 20.76 0 010 29.79 20.26 20.26 0 01-14.43 5.84H11.41v22.28zm11.41-32.6h12.34c5.11 0 10-3.74 10-10.32s-4.84-10.43-10-10.43H11.41zm83.12 32.6v-63.65h24.74a20.06 20.06 0 0114.62 5.84 19 19 0 016 14.33 19.2 19.2 0 01-11.59 18.09l15.44 25.39h-12.86l-13.62-22.65h-11.32v22.65zm11.41-32.87h12.14c6.22 0 10.51-4.3 10.51-10.42 0-5.84-4.11-10.06-9.58-10.06h-13.07zm87.8 24.66a33.09 33.09 0 010-46.95 34.38 34.38 0 0147.66 0 31.18 31.18 0 019.87 23.47 31.53 31.53 0 01-9.77 23.48 34.82 34.82 0 01-47.76 0zm7.85-7.31a21.89 21.89 0 0016 6.49 21.66 21.66 0 0015.88-6.49 23.38 23.38 0 000-32.33 21.28 21.28 0 00-15.88-6.58 21.51 21.51 0 00-16 6.58 23.64 23.64 0 000 32.33zm94.31-3.3c3.29 6.5 8.59 9.69 16 9.69 7.95 0 10.78-4.2 10.78-8.32a7 7 0 00-3.65-6.48c-2.66-1.83-4.57-2.65-9.31-4.38-5.85-2.19-9.23-3.83-12.89-6.75s-5.38-7.14-5.38-12.52a15.56 15.56 0 015.66-12.43 21.2 21.2 0 0114.06-4.75c8.68 0 15.25 3.48 19.64 10.33l-8.13 5.56c-2.47-3.74-6.21-5.65-11.33-5.65s-8.66 2.83-8.66 6.75c0 2.66 1.09 3.93 2.63 5.47a50.87 50.87 0 004.77 2.48l3.27 1.28 3.75 1.46c6 2.47 10.32 5.11 13 8s4 6.67 4 11.41c0 11.24-7.76 18.82-22.28 18.82-11.78 0-20.45-5.48-24.48-14.53zm75.34 18.82v-63.65h24.29a20.85 20.85 0 0114.47 5.74 20.76 20.76 0 010 29.82 20.31 20.31 0 01-14.43 5.84h-12.92v22.28zm11.41-32.6H395c5.11 0 9.95-3.74 9.95-10.32s-4.84-10.43-9.95-10.43h-12.35zm64.85 32.6v-63.65H488v10.3h-29.08v15.19h27.29v10.31h-27.29v17.53h29.77v10.32zm125.28-53.35l-7.78 6.68a22.17 22.17 0 00-17.45-7.76 22.6 22.6 0 100 45.2 22.07 22.07 0 0017.64-7.94l7.66 6.66a33 33 0 01-25.3 11.61 33.8 33.8 0 01-24-9.31 33.29 33.29 0 010-47.14 33.51 33.51 0 0124-9.41 32.23 32.23 0 0125.23 11.41zM609 256.09v-53.35h-17.3v-10.3h45.94v10.3h-17.27v53.35zm44.94-63.65h11.41v38.07c0 11 5.39 16.26 14.42 16.26 8.87 0 14.35-5.29 14.35-16.26v-38.07h11.41v39.27c0 8.13-2.38 14.42-7.21 18.8s-11 6.57-18.55 6.57-13.78-2.18-18.62-6.57-7.21-10.67-7.21-18.8zm72.29 44.83c3.3 6.5 8.59 9.69 16 9.69 7.94 0 10.77-4.2 10.77-8.32a7 7 0 00-3.65-6.48c-2.65-1.83-4.57-2.65-9.31-4.38-5.86-2.19-9.22-3.83-12.87-6.75s-5.4-7.14-5.4-12.52a15.57 15.57 0 015.67-12.43 21.15 21.15 0 0114.06-4.75c8.67 0 15.25 3.48 19.63 10.33l-8.13 5.56c-2.46-3.74-6.2-5.65-11.32-5.65s-8.68 2.83-8.68 6.75c0 2.66 1.09 3.93 2.65 5.47a50.48 50.48 0 004.75 2.48l3.29 1.28 3.74 1.46c6 2.47 10.33 5.11 13 8s4 6.67 4 11.41c0 11.24-7.76 18.82-22.28 18.82-11.78 0-20.46-5.48-24.48-14.53z" fill="#1d1d1b"/></svg>