<svg xmlns="http://www.w3.org/2000/svg" viewBox="0 0 102.89 35.43"><defs><style>.cls-1{fill:#b1c900}</style></defs><g id="Layer_2" data-name="Layer 2"><g id="Layer_2-2" data-name="Layer 2"><g id="Layer_4" data-name="Layer 4"><path d="M31.74 33.23v.83h-.24v-.34a.79.79 0 01-.67.39c-.54 0-.75-.43-.75-1.21v-2.12h.3v2.06c0 .57.08 1 .51 1a.63.63 0 00.59-.57v-2.49h.3zm.79-1.69v-.76h.27v.4a.78.78 0 01.73-.46c.35 0 .75.23.75 1.07v2.27H34V31.9c0-.46-.08-.93-.54-.93-.27 0-.53.24-.59.69a1.32 1.32 0 000 .29v2.11h-.29zm2.68-1.35c-.12 0-.21-.1-.21-.26a.22.22 0 01.22-.25c.15 0 .22.1.22.25s-.07.26-.22.26zm-.14 3.87v-3.28h.3v3.28zm1.49-4v.72h.62V31h-.62v2.24c0 .45.15.58.35.58h.2v.22a.56.56 0 01-.29.05.51.51 0 01-.44-.19 1.27 1.27 0 01-.14-.75V31h-.41v-.25h.41v-.55zm2.55 3.26a5.86 5.86 0 000 .74h-.27v-.36a.68.68 0 01-.62.41c-.4 0-.72-.34-.72-.9 0-.79.59-1.16 1.34-1.17v-.12c0-.56-.09-.94-.57-.94a.78.78 0 00-.46.16l-.09-.23a1.1 1.1 0 01.61-.19c.45 0 .8.26.8 1.05zm-.29-1a.89.89 0 00-1 .9c0 .49.24.66.45.66s.5-.22.57-.62a1.55 1.55 0 000-.21zm1.43-2.26v.72h.62V31h-.62v2.24c0 .45.15.58.35.58h.2v.22a.6.6 0 01-.29.05.51.51 0 01-.44-.19 1.18 1.18 0 01-.15-.75V31h-.41v-.25H40v-.55zm1.18 2.23c0 1.32.46 1.55.83 1.55a.84.84 0 00.49-.13l.07.23a1.15 1.15 0 01-.62.16c-.71 0-1.07-.68-1.07-1.67s.38-1.71 1-1.71.83.8.83 1.38v.19zm1.19-.23c0-.81-.32-1.08-.56-1.08s-.59.55-.62 1.08zM45 33.32a5.86 5.86 0 000 .74h-.27v-.36a.68.68 0 01-.62.41c-.4 0-.72-.34-.72-.9 0-.79.59-1.16 1.34-1.17v-.12c0-.56-.09-.94-.57-.94a.78.78 0 00-.46.16l-.09-.23a1.1 1.1 0 01.61-.19c.45 0 .8.26.8 1.05zm-.29-1a.89.89 0 00-1 .9c0 .49.24.66.45.66s.5-.22.57-.62a1.55 1.55 0 000-.21zm3.85-2.99v4.73h-.25v-.44a.73.73 0 01-.69.49c-.46 0-.91-.49-.91-1.68s.47-1.71 1-1.71a.65.65 0 01.62.43v-1.82zM48.27 32a1.85 1.85 0 000-.23c0-.43-.29-.8-.59-.8-.52 0-.69.71-.69 1.44s.19 1.43.65 1.43c.19 0 .47-.1.62-.73a.82.82 0 000-.22zm1.23.29c0 1.32.46 1.55.83 1.55a.84.84 0 00.49-.13l.07.23a1.15 1.15 0 01-.62.16c-.72 0-1.07-.68-1.07-1.67s.37-1.71 1-1.71.82.8.82 1.38v.19zm1.19-.23c0-.81-.32-1.08-.56-1.08s-.59.55-.62 1.08zm1.97-.52v-.76h.26v.41a.74.74 0 01.71-.47.68.68 0 01.67.53 1.11 1.11 0 01.31-.4.77.77 0 01.45-.13c.36 0 .75.23.75 1.1v2.24h-.29v-2.13c0-.47-.07-1-.55-1-.26 0-.5.24-.58.62a1.88 1.88 0 000 .34v2.13h-.29v-2.18c0-.43-.09-.87-.55-.87-.27 0-.53.24-.59.69v2.4h-.3zm5.43 1.78v.74h-.27v-.36a.66.66 0 01-.61.41c-.41 0-.73-.34-.73-.9 0-.79.6-1.16 1.34-1.17v-.12c0-.56-.09-.94-.56-.94a.78.78 0 00-.47.16l-.08-.23a1.07 1.07 0 01.61-.19c.44 0 .8.26.8 1.05zm-.3-1a.89.89 0 00-1 .9c0 .49.24.66.46.66s.5-.22.56-.62a1.55 1.55 0 000-.21zm1.1-.78v-.76h.26v.4a.77.77 0 01.73-.46c.34 0 .74.23.74 1.07v2.27h-.29V31.9c0-.46-.09-.93-.54-.93-.27 0-.53.24-.6.69a2.62 2.62 0 000 .29v2.11h-.3zm3.98 1.78a5.86 5.86 0 000 .74h-.27v-.36a.68.68 0 01-.62.41c-.4 0-.72-.34-.72-.9 0-.79.59-1.16 1.34-1.17v-.12c0-.56-.09-.94-.57-.94a.78.78 0 00-.46.16l-.09-.23a1.1 1.1 0 01.61-.19c.45 0 .8.26.8 1.05zm-.29-1a.89.89 0 00-1 .9c0 .49.24.66.46.66s.49-.22.56-.62a1.55 1.55 0 000-.21zm2.82 1.28c0 1-.09 1.26-.28 1.49a1 1 0 01-.75.34 1.27 1.27 0 01-.66-.17l.09-.26a1.34 1.34 0 00.61.15c.39 0 .7-.24.7-1.14v-.42a.67.67 0 01-.65.45c-.49 0-.93-.56-.93-1.64 0-1.29.58-1.7 1-1.7a.65.65 0 01.61.45v-.39h.28v1zm-.29-1.74a1 1 0 000-.24c-.07-.27-.21-.64-.6-.64s-.67.56-.67 1.41.32 1.41.68 1.41c.19 0 .45-.08.58-.62a1.23 1.23 0 000-.32zm1.23.43c0 1.32.46 1.55.83 1.55a.84.84 0 00.49-.13l.07.23a1.15 1.15 0 01-.62.16c-.72 0-1.07-.68-1.07-1.67s.38-1.71 1-1.71.82.8.82 1.38v.19zm1.19-.23c0-.81-.32-1.08-.56-1.08s-.59.55-.62 1.08zm.92-.52v-.76h.27v.41a.75.75 0 01.71-.47.68.68 0 01.67.53 1.11 1.11 0 01.31-.4.77.77 0 01.45-.13c.36 0 .76.23.76 1.1v2.24h-.3v-2.13c0-.47-.07-1-.55-1-.26 0-.49.24-.58.62a1.88 1.88 0 000 .34v2.13h-.29v-2.18c0-.43-.09-.87-.55-.87-.26 0-.52.24-.59.69v2.4h-.29zm4.12.75c0 1.32.46 1.55.83 1.55a.84.84 0 00.49-.13l.07.23a1.15 1.15 0 01-.62.16c-.72 0-1.07-.68-1.07-1.67s.37-1.71 1-1.71.82.8.82 1.38v.19zm1.19-.23c0-.81-.32-1.08-.56-1.08s-.59.55-.62 1.08zm.92-.52v-.76h.26v.4a.78.78 0 01.73-.46c.35 0 .74.23.74 1.07v2.27h-.29V31.9c0-.46-.08-.93-.54-.93-.27 0-.53.24-.6.69A2.62 2.62 0 0075 32v2.11h-.29zm2.87-1.48v.72h.62V31h-.62v2.24c0 .45.15.58.35.58h.19v.22a.62.62 0 01-.3.05.5.5 0 01-.43-.19 1.18 1.18 0 01-.15-.75V31h-.41v-.25h.41v-.55zm3.61 3.26v.74h-.27v-.36a.66.66 0 01-.61.41c-.41 0-.73-.34-.73-.9 0-.79.6-1.16 1.34-1.17v-.12c0-.56-.09-.94-.56-.94a.78.78 0 00-.47.16l-.08-.23a1.07 1.07 0 01.61-.19c.44 0 .8.26.8 1.05zm-.3-1a.89.89 0 00-1 .9c0 .49.24.66.46.66s.5-.22.56-.62a1.55 1.55 0 000-.21zm2.14-.53v-1h.28v.43a.75.75 0 01.69-.49c.48 0 .91.49.91 1.68s-.49 1.71-1 1.71a.63.63 0 01-.6-.41v1.67H83zm.29 1.06a2.44 2.44 0 000 .27c.13.63.44.73.61.73.51 0 .67-.68.67-1.43S84.43 31 83.91 31c-.3 0-.56.4-.59.79a2.35 2.35 0 000 .26zm2.25-1.31v-.76h.28v.53a.8.8 0 01.71-.59h.06V31c-.43 0-.67.42-.7.82a2.72 2.72 0 000 .28v1.92h-.29zm2.15 2.57c-.46 0-1-.48-1-1.69s.49-1.7 1-1.7 1 .49 1 1.7-.49 1.69-1 1.69zm0-.26c.56 0 .66-.9.66-1.43S88.28 31 87.71 31s-.66.9-.66 1.44.1 1.43.66 1.43zm1.77-3.66c-.12 0-.21-.1-.21-.26a.22.22 0 01.22-.25.22.22 0 01.23.25c0 .16-.08.26-.23.26zm-.13 3.87v-3.28h.29v3.28zm1.24-1.77c0 1.32.45 1.55.82 1.55a.85.85 0 00.5-.13l.06.23a1.09 1.09 0 01-.61.16c-.72 0-1.08-.68-1.08-1.67s.38-1.71 1-1.71.83.8.83 1.38v.19zm1.19-.23c0-.81-.33-1.08-.56-1.08-.39 0-.59.55-.63 1.08zM94.14 34a1 1 0 01-.54.14c-.64 0-1.09-.58-1.09-1.68 0-.89.4-1.7 1.17-1.7a.91.91 0 01.45.12l-.1.26a.8.8 0 00-.4-.11c-.59 0-.81.76-.81 1.46 0 .87.32 1.39.84 1.39a.83.83 0 00.41-.1zm.99-3.94v.72h.62V31h-.62v2.24c0 .45.15.58.35.58h.19v.22a.62.62 0 01-.3.05.5.5 0 01-.43-.19 1.18 1.18 0 01-.15-.75V31h-.41v-.25h.41v-.55zm2.81 3.17v.83h-.24v-.34a.83.83 0 01-.67.39c-.54 0-.76-.43-.76-1.21v-2.12h.3v2.06c0 .57.08 1 .51 1a.63.63 0 00.59-.57v-2.49h.3zm.79-3.9H99v4.73h-.29zm2.87 3.9v.83h-.26v-.34a.79.79 0 01-.67.39c-.54 0-.75-.43-.75-1.21v-2.12h.3v2.06c0 .57.08 1 .51 1a.63.63 0 00.59-.57v-2.49h.3zm.92-3.04c-.12 0-.21-.1-.21-.26a.22.22 0 01.22-.25.22.22 0 01.23.25c0 .16-.08.26-.23.26zm-.13 3.87v-3.28h.29v3.28z"/><path class="cls-1" d="M77.66 16.21l25.09-.68c.41-10.24-25.09-8.18-25.09-8.18v20.12S69.3 8.66 65.38 8.13 53.89 26.69 53.89 26.69 39.77 3 35.6 12.05c-6.07 13.13-4.73 22.38-19.37 20.55S.13 0 .13 0s1.47 26.19 16.1 28 13.3-7.4 19.37-20.52c4.17-9 18.29 14.63 18.29 14.63S61.46 3 65.38 3.56s12.28 19.33 12.28 19.33V2.77s25.5-2 25.09 8.19z"/><path class="cls-1" d="M19.65 33a28.74 28.74 0 01-3.43-.23c-3.38-.42-6.33-2.41-8.78-5.92a36.7 36.7 0 01-4.87-11.2A80.53 80.53 0 010 0h.26a59.42 59.42 0 002.56 13.29 29.47 29.47 0 004.83 9.51 13 13 0 008.6 5.1c11.13 1.39 12.93-3.67 15.91-12 .89-2.53 1.91-5.38 3.32-8.44a3.11 3.11 0 012.64-2.16h.15c5.38 0 14.34 14.46 15.59 16.53.94-2.32 7.76-18.9 11.54-18.4 3.61.48 10.7 15.7 12.13 18.86V2.66h.12a73.68 73.68 0 019.58 0c6.84.34 11.52 1.76 13.89 4.04a5.4 5.4 0 011.76 4.3v.1l-1.63.34a5.38 5.38 0 011.63 4.14v.12h-.12l-25 .67v11.71l-.25-.56c-.08-.19-8.37-18.75-12.17-19.26S54.08 26.54 54 26.73l-.1.25-.13-.23c-.1-.17-10-16.62-15.51-16.62h-.14a2.89 2.89 0 00-2.42 2c-1.4 3-2.42 5.89-3.31 8.41-1.51 4.25-2.71 7.61-5 9.79C25.58 32.1 23.11 33 19.65 33zM1.26 8.5a71.74 71.74 0 001.56 7.09 36.46 36.46 0 004.83 11.07c2.41 3.45 5.3 5.4 8.6 5.81 11.13 1.4 12.93-3.66 15.91-12 .89-2.52 1.91-5.38 3.32-8.43a3.12 3.12 0 012.63-2.13h.16c5.38 0 14.34 14.46 15.59 16.53C54.8 24.08 61.62 7.5 65.4 8c3.6.49 10.7 15.7 12.13 18.87v-3.95c-.35-.78-8.42-18.74-12.16-19.23S54.08 22 54 22.16l-.1.24-.13-.23c-.1-.16-10-16.62-15.51-16.62h-.14a2.9 2.9 0 00-2.42 2c-1.4 3-2.42 5.9-3.31 8.41-1.51 4.26-2.71 7.61-5 9.79-2.43 2.34-5.89 3.09-11.22 2.42A13.28 13.28 0 017.45 23a29.78 29.78 0 01-4.88-9.59C2 11.7 1.6 10.05 1.26 8.5zm76.53-1v8.58l22.93-4.8c-5.55-4.9-21.39-3.92-22.93-3.81zm23.16 4L79.09 16l23.54-.63a5.16 5.16 0 00-1.63-3.9zM82.76 7.05c1.35 0 2.88 0 4.47.14C94 7.61 98.62 9 101 11.19l1.6-.34a5.16 5.16 0 00-1.69-4c-5.32-5.11-21.59-4.1-23.15-4v4.36c.55-.04 2.46-.16 5-.16z"/></g></g></g></svg>