<svg data-name="Layer 1" xmlns="http://www.w3.org/2000/svg" width="99.87mm" height="99.8mm" viewBox="0 0 283.1 282.91"><ellipse cx="141.55" cy="141.45" rx="200.18" ry="200.05" fill="#1298d5"/><path d="M170.6 222.32a73.81 73.81 0 01-12.76-1.12 56 56 0 01-18.19-6.48 41.91 41.91 0 01-18.12-20.2 44.93 44.93 0 01-3-10.67 51.35 51.35 0 01-.52-11.94 38.77 38.77 0 012.66-11.43 40.47 40.47 0 0111.08-15.73 34.36 34.36 0 0112.13-6.89c.65-.22 1.33-.36 2-.55.18 0 .4-.1.38-.34s-.19-.23-.34-.28c-.8-.29-1.61-.55-2.39-.86a30.78 30.78 0 01-12.16-8.53 33.26 33.26 0 01-6.49-11.61 45.2 45.2 0 01-2.09-15.8 39.15 39.15 0 014-16.25 36.22 36.22 0 019.07-11.57 46 46 0 0117.34-9.13 57.15 57.15 0 019.61-1.93 70.4 70.4 0 0114.22-.14 59.5 59.5 0 0110.1 1.78 45.89 45.89 0 0119 9.95 36.57 36.57 0 0110.52 16.16 43 43 0 011.87 16 39.77 39.77 0 01-4.15 15.94 30.77 30.77 0 01-16.54 15.1c-.78.31-1.59.57-2.38.87-.17.06-.41.08-.39.33s.25.26.42.31c1 .3 2.06.55 3.08.9a33.51 33.51 0 0110.79 6.24 39.87 39.87 0 0112.29 18.56 39.3 39.3 0 011.85 11.4 52.76 52.76 0 01-.64 9.49 42.73 42.73 0 01-9.06 20.64 45.38 45.38 0 01-18.49 13.28 56.38 56.38 0 01-8.88 2.77 63.64 63.64 0 01-10.82 1.52c-1.66.1-3.33.23-5 .21zm-.14-25.22a32.05 32.05 0 009.27-1.35 24.43 24.43 0 009.91-5.8 23.58 23.58 0 007-13.69 25.83 25.83 0 00-.34-10.1 23.1 23.1 0 00-9.14-13.54 27.07 27.07 0 00-14.27-5.1 29.37 29.37 0 00-9.07.71 26.12 26.12 0 00-11.59 6 23.11 23.11 0 00-7.51 13.9 25.58 25.58 0 00.58 10.66 23.24 23.24 0 009.05 13.28 27.46 27.46 0 0016.11 5.03zm21.65-92.25a32.18 32.18 0 00-.38-4.46 21 21 0 00-16.2-16.73 23.7 23.7 0 00-9.27-.14 20.53 20.53 0 00-7.87 3c-5.25 3.44-8 8.43-8.9 14.55a23.81 23.81 0 001.43 12.22 19.46 19.46 0 008.57 10.07 21.84 21.84 0 0010.71 2.8 20.52 20.52 0 0011.49-3.07 21.43 21.43 0 0010.42-18.24zm-102.35 8.71a6.42 6.42 0 01.11 1.69v103.69c0 .47-.19.71-.67.7H64.67c-1.3 0-1.3 0-1.3-1.29V114.66a2.76 2.76 0 01.14-1.11h16.85zM59.6 77.58a16 16 0 0110.02-14.57 16.89 16.89 0 015.86-1.28c5.2-.19 9.83 1.23 13.59 4.94a14.64 14.64 0 014.46 12.51c-.68 6.32-4.26 10.52-10 13a17.14 17.14 0 01-10.26 1.1c-6.7-1.37-11.24-5.27-13.22-11.96a13.83 13.83 0 01-.45-3.74z" fill="#fff"/></svg>